<svg xmlns="http://www.w3.org/2000/svg" xmlns:xlink="http://www.w3.org/1999/xlink" viewBox="0 0 24 30" version="1.1" x="0px" y="0px"><title>34 -Swords- (Outline)</title><desc>Created with Sketch.</desc><g stroke="none" stroke-width="1" fill="none" fill-rule="evenodd"><g fill="#000000"><path d="M2.90993514,14.575255 C3.06207204,17.0830198 6.89727068,20.9156911 9.46781569,21.1669566 C10.0174808,21.2206853 10.506628,20.8186494 10.5603566,20.2689843 C10.6140853,19.7193192 10.2120494,19.230172 9.66238431,19.1764434 C8.0547946,19.0193047 4.99788721,15.9644118 4.90626486,14.454145 C4.87282126,13.9028738 4.39881623,13.4830915 3.847545,13.5165351 C3.29627376,13.5499787 2.87649153,14.0239838 2.90993514,14.575255 Z"/><path d="M5.32229322,17.3430932 L1.07929322,21.5860932 C0.688768927,21.9766175 0.688768927,22.6097825 1.07929322,23.0003068 C1.46981751,23.3908311 2.10298249,23.3908311 2.49350678,23.0003068 L6.73650678,18.7573068 C7.12703107,18.3667825 7.12703107,17.7336175 6.73650678,17.3430932 C6.34598249,16.9525689 5.71281751,16.9525689 5.32229322,17.3430932 Z"/><path d="M0.372593219,22.2929068 L1.78659322,23.7069068 C2.17711751,24.0974311 2.81028249,24.0974311 3.20080678,23.7069068 C3.59133107,23.3163825 3.59133107,22.6832175 3.20080678,22.2926932 L1.78680678,20.8786932 C1.39628249,20.4881689 0.763117511,20.4881689 0.372593219,20.8786932 C-0.0179310729,21.2692175 -0.0179310729,21.9023825 0.372593219,22.2929068 Z"/><path d="M14.575255,21.1697649 C17.0830198,21.017628 20.9156911,17.1824293 21.1669566,14.6118843 C21.2206853,14.0622192 20.8186494,13.573072 20.2689843,13.5193434 C19.7193192,13.4656147 19.230172,13.8676506 19.1764434,14.4173157 C19.0193047,16.0249054 15.9644118,19.0818128 14.454145,19.1734351 C13.9028738,19.2068787 13.4830915,19.6808838 13.5165351,20.232155 C13.5499787,20.7834262 14.0239838,21.2032085 14.575255,21.1697649 Z"/><path d="M20.1583037,17.0544175 C20.4237582,16.6577024 20.3718206,16.1286829 20.0342815,15.791168 L6.02928154,1.78716797 C5.91954507,1.67743934 5.78577663,1.59475613 5.63856191,1.54566143 L1.39556191,0.130661427 C0.613717144,-0.130076339 -0.130176339,0.613817144 0.130561427,1.39566191 L1.54556143,5.63866191 C1.59465613,5.78587664 1.67733935,5.91964508 1.78706799,6.02938155 L15.801068,20.0443816 C16.1397914,20.3831291 16.6711661,20.4340796 17.0680873,20.1658688 C17.6383219,19.7805452 18.205297,19.3094165 18.7263068,18.7884068 C19.2677417,18.2469719 19.7571651,17.6539092 20.1583037,17.0544175 Z M3.36818523,4.78208357 L2.66078613,2.66088613 L4.78198359,3.36828523 L18.0119814,16.5973383 C17.7964057,16.863663 17.5620056,17.1242809 17.3150932,17.3711932 C17.0838482,17.6024382 16.8454718,17.8187362 16.6032297,18.0180725 L3.36818523,4.78208357 Z"/><path d="M17.3430932,18.7573068 L21.5860932,23.0003068 C21.9766175,23.3908311 22.6097825,23.3908311 23.0003068,23.0003068 C23.3908311,22.6097825 23.3908311,21.9766175 23.0003068,21.5860932 L18.7573068,17.3430932 C18.3667825,16.9525689 17.7336175,16.9525689 17.3430932,17.3430932 C16.9525689,17.7336175 16.9525689,18.3667825 17.3430932,18.7573068 Z"/><path d="M22.2929068,23.7071068 L23.7069068,22.2931068 C24.0974311,21.9025825 24.0974311,21.2694175 23.7069068,20.8788932 C23.3163825,20.4883689 22.6832175,20.4883689 22.2926932,20.8788932 L20.8786932,22.2928932 C20.4881689,22.6834175 20.4881689,23.3165825 20.8786932,23.7071068 C21.2692175,24.0976311 21.9023825,24.0976311 22.2929068,23.7071068 Z"/><path d="M7.02634504,20.1587137 C7.42302325,20.4234102 7.95141633,20.3711729 8.28858608,20.0339275 L12.7465861,15.5749275 C13.1370356,15.1843904 13.1370001,14.5512865 12.7465068,14.1607932 L9.91850678,11.3327932 C9.52798249,10.9422689 8.89481751,10.9422689 8.50429322,11.3327932 L4.03529322,15.8017932 C3.69632718,16.1407593 3.64558504,16.6725853 3.91433655,17.0695344 C4.29926071,17.6380718 4.76934799,18.2037092 5.28841935,18.7231319 C5.83615514,19.270777 6.42960156,19.760517 7.02634504,20.1587137 Z M10.6252657,14.8679793 L7.48203522,18.0119149 C7.21806023,17.7982294 6.9587002,17.5651906 6.71197592,17.3192522 C6.47759306,17.0838795 6.26139442,16.8456645 6.06199366,16.6035199 L9.2114,13.4541136 L10.6252657,14.8679793 Z"/><path d="M18.0502932,1.78679322 L11.3322932,8.50479322 C10.9417201,8.89536633 10.9417761,9.52862771 11.3324182,9.91913177 L14.1614182,12.7471318 C14.5519833,13.1375588 15.1850924,13.1374792 15.5755594,12.7469541 L22.2925594,6.02895415 C22.4022576,5.91923959 22.4849228,5.78550519 22.5340162,5.63832902 L23.9490162,1.39632902 C24.2097887,0.614564482 23.4660776,-0.12935699 22.6842393,0.131194345 L18.4412393,1.54519435 C18.2939347,1.59428429 18.160085,1.67700147 18.0502932,1.78679322 Z M21.4188139,2.66103884 L20.7114347,4.78167657 L14.8682224,10.6257588 L13.4537386,9.21177499 L19.2975551,3.36795844 L21.4188139,2.66103884 Z"/></g></g><text x="0" y="39" fill="#000000" font-size="5px" font-weight="bold" font-family="'Helvetica Neue', Helvetica, Arial-Unicode, Arial, Sans-serif">Created by Ben Davis</text><text x="0" y="44" fill="#000000" font-size="5px" font-weight="bold" font-family="'Helvetica Neue', Helvetica, Arial-Unicode, Arial, Sans-serif">from the Noun Project</text></svg>